<svg xmlns="http://www.w3.org/2000/svg" viewBox="0 0 64 64"><defs><style>.cls-1,.cls-3{fill:none;}.cls-2{fill:#005688;}.cls-3{stroke:#005688;stroke-miterlimit:10;stroke-width:3px;}</style></defs><g id="BG_Placeholder" data-name="BG Placeholder"><rect class="cls-1" width="64" height="64"/></g><g id="Layer_2" data-name="Layer 2"><path class="cls-2" d="M32,3A29,29,0,1,1,3,32,29,29,0,0,1,32,3m0-3A32,32,0,1,0,64,32,32,32,0,0,0,32,0Z"/><polyline class="cls-3" points="50.5 14.33 31.17 38.67 21.5 26"/><polygon class="cls-2" points="45.5 27.86 45.5 46.5 16.5 46.5 16.5 17.5 42.24 17.5 44.62 14.5 13.5 14.5 13.5 49.5 48.5 49.5 48.5 24.09 45.5 27.86"/></g></svg>