<svg width="20" height="21" viewBox="0 0 20 21" fill="none" xmlns="http://www.w3.org/2000/svg">
<circle cx="10" cy="10.5" r="10" fill="white"/>
<path d="M11.2661 4.71042L10.9346 12.3816H8.82211L8.49059 4.71042H11.2661ZM8.4212 14.7716C8.4212 14.4015 8.55484 14.0931 8.82211 13.8464C9.08938 13.5946 9.43631 13.4686 9.86292 13.4686C10.2895 13.4686 10.6339 13.5946 10.896 13.8464C11.1633 14.0931 11.2969 14.4015 11.2969 14.7716C11.2969 15.1416 11.1633 15.4526 10.896 15.7045C10.6339 15.9512 10.2895 16.0745 9.86292 16.0745C9.43631 16.0745 9.08938 15.9512 8.82211 15.7045C8.55484 15.4526 8.4212 15.1416 8.4212 14.7716Z" fill="#0094EA"/>
</svg>
