<?xml version="1.0" encoding="utf-8"?>
<!-- Generator: Adobe Illustrator 27.0.0, SVG Export Plug-In . SVG Version: 6.00 Build 0)  -->
<svg version="1.1" xmlns="http://www.w3.org/2000/svg" xmlns:xlink="http://www.w3.org/1999/xlink" x="0px" y="0px"
	 viewBox="0 0 64 64" style="enable-background:new 0 0 64 64;" xml:space="preserve">
<style type="text/css">
	.st0{fill:none;}
	.st1{fill:#249C3D;}
	.st2{fill:none;stroke:#249C3D;stroke-width:2.7432;stroke-linecap:round;stroke-linejoin:round;stroke-miterlimit:10;}
	.st3{fill:none;stroke:#249C3D;stroke-width:3;stroke-linecap:round;stroke-miterlimit:10;}
</style>
<g id="BG_Placeholder">
	<rect class="st0" width="64" height="64"/>
</g>
<g id="Layer_2">
	<g>
		<g>
			<path class="st1" d="M32,3c15.99,0,29,13.01,29,29S47.99,61,32,61S3,47.99,3,32S16.01,3,32,3 M32,0C14.33,0,0,14.33,0,32
				s14.33,32,32,32s32-14.33,32-32S49.67,0,32,0L32,0z"/>
		</g>
		<g>
			<path class="st2" d="M31.55,49.73v2.66"/>
			<path class="st3" d="M22.52,20.14c0-4.71,4.24-8.53,9.47-8.53s9.35,3.82,9.47,8.53c0.27,10.31-10.03,9.34-10.03,22.61"/>
		</g>
	</g>
</g>
</svg>
