<?xml version="1.0" encoding="utf-8"?>
<!-- Generator: Adobe Illustrator 27.0.0, SVG Export Plug-In . SVG Version: 6.00 Build 0)  -->
<svg version="1.1" xmlns="http://www.w3.org/2000/svg" xmlns:xlink="http://www.w3.org/1999/xlink" x="0px" y="0px"
	 viewBox="0 0 64 64" style="enable-background:new 0 0 64 64;" xml:space="preserve">
<style type="text/css">
	.st0{fill:none;}
	.st1{fill:#007BC2;}
</style>
<g id="BG_Placeholder">
	<rect class="st0" width="64" height="64"/>
</g>
<g id="Layer_2">
	<g>
		<g>
			<path class="st1" d="M32,3c15.99,0,29,13.01,29,29S47.99,61,32,61S3,47.99,3,32S16.01,3,32,3 M32,0C14.33,0,0,14.33,0,32
				s14.33,32,32,32s32-14.33,32-32S49.67,0,32,0L32,0z"/>
		</g>
		<g>
			<g>
				<path class="st1" d="M40.26,18c0.11,0,0.22,0,0.33,0.01c0.63,0.03,1.27,0.12,1.89,0.28c1.64,0.43,3.13,1.3,4.31,2.51
					c1.18,1.21,2.05,2.76,2.49,4.39C51.19,35.25,39.2,45.65,32,50c-7.2-4.35-19.19-14.75-17.28-24.81c0.44-1.63,1.3-3.18,2.49-4.39
					c1.18-1.21,2.67-2.08,4.31-2.51c0.62-0.16,1.26-0.26,1.89-0.28c0.11,0,0.22-0.01,0.33-0.01c0.02,0,0.05,0,0.07,0
					c0.92,0.01,1.85,0.16,2.73,0.45c1.81,0.6,3.42,1.83,4.47,3.42c0.43,0.65,0.76,1.37,1,2.12c0.24-0.75,0.57-1.46,1-2.12
					c1.05-1.6,2.66-2.82,4.47-3.42C38.37,18.16,39.31,18,40.26,18 M40.26,15C40.26,15,40.26,15,40.26,15c-1.25,0-2.51,0.2-3.72,0.6
					c-1.72,0.57-3.27,1.53-4.54,2.79c-1.27-1.26-2.82-2.22-4.52-2.78c-1.2-0.39-2.43-0.59-3.65-0.6l-0.09,0
					c-0.15,0-0.29,0-0.44,0.01c-0.85,0.04-1.7,0.16-2.52,0.37c-2.18,0.58-4.15,1.72-5.71,3.32c-1.53,1.56-2.65,3.54-3.23,5.7
					l-0.03,0.11l-0.02,0.11c-2.24,11.8,10.69,23.11,18.68,27.94L32,53.5l1.55-0.94c7.99-4.82,20.92-16.14,18.68-27.94l-0.02-0.11
					l-0.03-0.11c-0.58-2.16-1.7-4.14-3.24-5.71c-1.55-1.59-3.52-2.74-5.69-3.31c-0.84-0.22-1.68-0.34-2.52-0.38
					C40.56,15,40.41,15,40.26,15L40.26,15L40.26,15z"/>
			</g>
		</g>
	</g>
</g>
</svg>
